<?xml version="1.0" encoding="iso-8859-1"?>
<!-- Uploaded to: SVG Repo, www.svgrepo.com, Generator: SVG Repo Mixer Tools -->
<svg height="800px" width="800px" version="1.1" id="Capa_1" xmlns="http://www.w3.org/2000/svg" xmlns:xlink="http://www.w3.org/1999/xlink" 
	 viewBox="0 0 46.102 46.102" xml:space="preserve">
<g>
	<path style="fill:#010002;" d="M41.818,17.893c-0.859-9.174-5.781-14.83-14.525-17.425c-5.887-1.749-16.407,1.611-20.088,6.58
		C6.84,7.54,6.467,8.114,6.363,8.696c-1.278,7.182-2.636,14.352-3.684,21.568c-0.418,2.875,0.602,5.354,3.567,6.818
		c4.072,2.009,7.924,4.475,12.038,6.379c4.841,2.24,9.967,3.15,15.37,2.362c6.663-0.972,10.02-4.269,9.854-12.575
		C43.121,29.77,42.375,23.84,41.818,17.893z M38.38,41.545c-4.011,2.183-8.304,2.636-12.693,1.616
		c-0.637-0.148-1.378-1.494-1.409-2.312c-0.148-3.925-0.022-7.858-0.107-11.786c-0.017-0.774-0.32-1.991-0.847-2.236
		c-3.922-1.826-7.904-3.522-12.041-5.303c-0.285-0.123-0.568-0.179-0.837-0.174c-0.267,0.005-0.519,0.071-0.743,0.19
		c-0.448,0.239-0.779,0.693-0.89,1.305c-0.554,3.057-1.085,5.982-1.61,8.879c-0.03,0.166-0.063,0.328-0.098,0.484
		c-0.055,0.247-0.114,0.477-0.177,0.687c-0.008,0.024-0.014,0.051-0.021,0.075c-0.064,0.21-0.13,0.39-0.195,0.543
		c-0.009,0.021-0.018,0.046-0.027,0.066c-0.073,0.163-0.145,0.283-0.211,0.346c-0.032,0.032-0.064,0.05-0.093,0.051
		c-0.233,0.019-0.674-0.564-0.984-1.304c-0.203-0.485-0.354-0.961-0.285-1.404c1.099-7.202,2.302-14.39,3.604-21.558
		c0.154-0.841,0.985-1.687,1.712-2.268c1.178-0.94,2.531-1.659,3.807-2.474c8.262-5.27,15.181-2.284,21.31,3.201
		c2.964,2.651,3.219,6.525,3.712,10.08c0.846,6.087,1.157,12.247,1.881,18.353C41.433,39.083,40.306,40.496,38.38,41.545z
		 M30.078,16.783c0.453,7.304,0.747,14.619,1.067,21.931c0.008,0.188-0.073,0.381-0.177,0.573c-0.158,0.296-0.431,0.535-0.606,0.535
		s-0.408-1.006-0.529-2.244c-0.15-1.557-0.301-3.113-0.384-4.673c-0.23-4.279-0.543-8.564-0.499-12.843
		c0.03-2.929-0.693-5.246-3.195-6.9c-0.208-0.138-0.366-0.351-0.532-0.602c-0.246-0.374,0.586-0.598,1.683-0.012
		C28.592,13.449,29.975,15.122,30.078,16.783z"/>
</g>
</svg>